PathFileType	4	(X/Y/Z)	/Users/itak/Documents/Research/Walk-IL/dataset/trc/00462_00167.trc
DataRate	CameraRate	NumFrames	NumMarkers	Units	OrigDataRate	OrigDataStartFrame	OrigNumFrames
100.000000	100.000000	4	53	mm	100.000000	140	560
Frame#	Time	RPSI			LPSI			L3			STRN			T10			C7			CLAV			RBAK			LBAK			LSHO			LUPA			LAEL			LAOL			LWTS			LWPS			LFRA			LIFD			LHPS			LHTS			RSHO			RUPA			RAEL			RAOL			RWTS			RWPS			RFRA			RIFD			RHTS			RHPS			RBHD			LFHD			RFHD			LBHD			LHIP			RHIP			RASI			LASI			LKNE			LTHI			LANK			LTIP			LTOE			LMT1			LMT5			LHEE			RKNE			RTHI			RANK			RTIP			RTOE			RMT1			RMT5			RHEE			
		X1	Y1	Z1	X2	Y2	Z2	X3	Y3	Z3	X4	Y4	Z4	X5	Y5	Z5	X6	Y6	Z6	X7	Y7	Z7	X8	Y8	Z8	X9	Y9	Z9	X10	Y10	Z10	X11	Y11	Z11	X12	Y12	Z12	X13	Y13	Z13	X14	Y14	Z14	X15	Y15	Z15	X16	Y16	Z16	X17	Y17	Z17	X18	Y18	Z18	X19	Y19	Z19	X20	Y20	Z20	X21	Y21	Z21	X22	Y22	Z22	X23	Y23	Z23	X24	Y24	Z24	X25	Y25	Z25	X26	Y26	Z26	X27	Y27	Z27	X28	Y28	Z28	X29	Y29	Z29	X30	Y30	Z30	X31	Y31	Z31	X32	Y32	Z32	X33	Y33	Z33	X34	Y34	Z34	X35	Y35	Z35	X36	Y36	Z36	X37	Y37	Z37	X38	Y38	Z38	X39	Y39	Z39	X40	Y40	Z40	X41	Y41	Z41	X42	Y42	Z42	X43	Y43	Z43	X44	Y44	Z44	X45	Y45	Z45	X46	Y46	Z46	X47	Y47	Z47	X48	Y48	Z48	X49	Y49	Z49	X50	Y50	Z50	X51	Y51	Z51	X52	Y52	Z52	X53	Y53	Z53	

141	1.4	-1178.40234375	947.4073486328125	-537.9652709960938	-1194.833862304688	959.3074951171875	-679.6009521484375	-1166.339111328125	1044.929565429688	-597.3115844726562	-894.0307006835938	1243.228149414062	-661.7159423828125	-1177.70947265625	1170.52978515625	-596.18505859375	-1106.723999023438	1438.120971679688	-598.3176879882812	-930.3802490234375	1356.582641601562	-658.1705322265625	-1146.316284179688	1319.02490234375	-493.6796875	-1163.332641601562	1390.411499023438	-686.012939453125	-1086.854125976562	1414.843383789062	-790.3829345703125	-1121.986694335938	1294.992065429688	-881.850830078125	-1103.074951171875	1077.244140625	-915.901123046875	-1166.6552734375	1066.580688476562	-835.0059814453125	-1016.486389160156	873.8516845703125	-883.089599609375	-1073.400390625	860.802978515625	-930.3221435546875	-1083.910522460938	989.1807861328125	-927.4366455078125	-1024.139770507812	703.9844970703125	-885.5792846679688	-1068.723510742188	781.6055297851562	-932.5386352539062	-1005.025207519531	785.771728515625	-896.337646484375	-1003.484619140625	1408.91259765625	-459.2926330566406	-1006.262817382812	1347.837036132812	-382.1773376464844	-986.7559814453125	1064.983764648438	-318.1551208496094	-1047.289428710938	1047.078979492188	-342.7216186523438	-898.4361572265625	859.3350830078125	-386.3930358886719	-945.8271484375	846.6397094726562	-312.6453552246094	-978.875244140625	1006.396179199219	-309.5444946289062	-898.7737426757812	702.0086669921875	-375.3843994140625	-881.6946411132812	760.7391967773438	-376.572998046875	-932.2344360351562	759.2855834960938	-318.3977355957031	-996.398681640625	1637.763549804688	-535.718505859375	-889.4107666015625	1643.4306640625	-712.5360717773438	-866.8160400390625	1641.882202148438	-583.6680297851562	-1042.431274414062	1645.993408203125	-707.2349853515625	-1080.191528320312	855.5795288085938	-820.5888671875	-1034.925537109375	840.1409301757812	-420.935791015625	-948.6943969726562	888.4886474609375	-500.7803649902344	-972.4558715820312	888.090576171875	-755.1864013671875	-1106.45263671875	436.0475158691406	-757.0625610351562	-1069.739990234375	583.9307250976562	-793.347412109375	-1212.7470703125	34.57601547241211	-708.16259765625	-1125.252807617188	287.7489929199219	-754.4400634765625	-974.7583618164062	55.06972122192383	-657.9226684570312	-1046.736206054688	58.68798828125	-623.2529907226562	-1061.414672851562	44.75731658935547	-734.7761840820312	-1250.806640625	46.06713104248047	-640.266845703125	-901.8543701171875	476.2769470214844	-448.7213134765625	-955.4783325195312	721.6533813476562	-423.4742126464844	-1119.882690429688	97.59455108642578	-365.0700073242188	-955.6363525390625	349.677978515625	-412.6450805664062	-936.3961181640625	45.61581420898438	-449.7431945800781	-997.3611450195312	56.69417572021484	-475.8859252929688	-997.4427490234375	52.71551513671875	-369.9269714355469	-1189.026733398438	122.9490585327148	-400.3940124511719	
142	1.41	-1176.563354492188	946.1106567382812	-538.75	-1193.725708007812	958.4500122070312	-680.2664794921875	-1165.427124023438	1044.603881835938	-598.7291870117188	-892.124267578125	1242.310546875	-663.7792358398438	-1176.006225585938	1170.157958984375	-598.0357666015625	-1104.280883789062	1437.614868164062	-600.3778686523438	-928.2080688476562	1355.720581054688	-660.1751098632812	-1144.212524414062	1318.609008789062	-495.720947265625	-1160.987915039062	1390.046508789062	-688.063720703125	-1084.425415039062	1414.183959960938	-792.4930419921875	-1119.787231445312	1294.326782226562	-883.8653564453125	-1101.679321289062	1076.51025390625	-917.6924438476562	-1165.299072265625	1066.152587890625	-836.7828979492188	-1016.152465820312	872.703125	-884.7675170898438	-1073.226318359375	859.9718627929688	-931.9743041992188	-1082.959716796875	988.3446044921875	-929.1723022460938	-1024.705078125	702.8634643554688	-887.1779174804688	-1068.889038085938	780.5672607421875	-934.1754150390625	-1005.198608398438	784.5269165039062	-897.9661865234375	-1001.232177734375	1408.150024414062	-461.2599182128906	-1004.2138671875	1346.99365234375	-384.1992492675781	-985.1908569335938	1064.143798828125	-320.2392578125	-1045.666748046875	1046.19970703125	-344.9902954101562	-896.3261108398438	858.6776733398438	-388.2108154296875	-944.1248779296875	845.8604125976562	-314.7302551269531	-977.2978515625	1005.545532226562	-311.6698608398438	-896.4403686523438	701.355712890625	-377.318603515625	-879.4512939453125	760.111328125	-378.3730773925781	-930.3206176757812	758.5510864257812	-320.4549560546875	-992.8765869140625	1637.089965820312	-537.7510375976562	-885.77587890625	1641.884643554688	-714.54052734375	-863.1847534179688	1640.284545898438	-585.6539916992188	-1038.781982421875	1645.505859375	-709.343505859375	-1079.96728515625	855.2002563476562	-821.9295654296875	-1030.983520507812	840.024658203125	-422.4920959472656	-946.2697143554688	889.067138671875	-503.2572937011719	-971.7073974609375	887.681884765625	-757.3377685546875	-1107.276245117188	435.9436340332031	-758.0764770507812	-1070.36669921875	583.6873168945312	-794.6544799804688	-1212.921264648438	34.47349166870117	-708.0960083007812	-1126.110107421875	287.7392883300781	-755.1837768554688	-974.9775390625	55.32513427734375	-658.1171264648438	-1047.011352539062	58.82217788696289	-623.5108642578125	-1061.693115234375	44.65443801879883	-735.0099487304688	-1250.934692382812	45.96946716308594	-640.1998901367188	-889.7076416015625	479.0876770019531	-453.3941955566406	-948.73583984375	723.1107177734375	-426.6351013183594	-1114.573364257812	105.6430587768555	-367.8554382324219	-944.5022583007812	352.602294921875	-417.2132568359375	-933.7987670898438	46.10907363891602	-450.9784240722656	-994.0052490234375	57.60095977783203	-478.0276184082031	-994.0488891601562	56.21019744873047	-372.0574035644531	-1182.987182617188	132.3674774169922	-403.234375	
143	1.42	-1174.409057617188	944.964111328125	-539.3636474609375	-1192.450439453125	957.6233520507812	-680.7515869140625	-1164.320068359375	1044.347412109375	-600.0049438476562	-890.07568359375	1241.464111328125	-665.79248046875	-1174.15478515625	1169.839599609375	-599.8134155273438	-1101.703369140625	1437.186889648438	-602.4126586914062	-925.902587890625	1354.93115234375	-662.126953125	-1141.98388671875	1318.262451171875	-497.729736328125	-1158.50439453125	1389.762451171875	-690.102783203125	-1081.8251953125	1413.593872070312	-794.5763549804688	-1117.360107421875	1293.7294921875	-885.8656005859375	-1100.109008789062	1075.835571289062	-919.456787109375	-1163.791137695312	1065.80322265625	-838.5349731445312	-1015.766540527344	871.5706787109375	-886.417236328125	-1072.967651367188	859.1863403320312	-933.6119384765625	-1081.875854492188	987.564208984375	-930.8756713867188	-1025.300415039062	701.762939453125	-888.760498046875	-1069.01708984375	779.5851440429688	-935.7901611328125	-1005.425231933594	783.2863159179688	-899.5980224609375	-998.8740234375	1407.46826171875	-463.1763305664062	-1002.087890625	1346.23388671875	-386.1665954589844	-983.63427734375	1063.348266601562	-322.3141479492188	-1044.045776367188	1045.376220703125	-347.2728576660156	-894.22802734375	858.0782470703125	-390.0678405761719	-942.4596557617188	845.11376953125	-316.872802734375	-975.7308349609375	1004.738830566406	-313.8099975585938	-894.128173828125	700.7565307617188	-379.3595275878906	-877.2257690429688	759.54541015625	-380.2375793457031	-928.440185546875	757.8441772460938	-322.6273498535156	-989.2190551757812	1636.483032226562	-539.7523803710938	-881.9539794921875	1640.396728515625	-716.4871215820312	-859.4135131835938	1638.7431640625	-587.5736694335938	-1034.955444335938	1645.099243164062	-711.4349365234375	-1079.683349609375	854.8296508789062	-823.1625366210938	-1026.717407226562	840.1351318359375	-423.9168395996094	-943.6068725585938	889.7360229492188	-505.7585144042969	-970.878662109375	887.3072509765625	-759.4963989257812	-1107.824829101562	435.8143615722656	-758.935546875	-1070.76171875	583.4457397460938	-795.8456420898438	-1213.0712890625	34.4365119934082	-707.9970092773438	-1126.777709960938	287.7171020507812	-755.7989501953125	-975.137451171875	55.46413421630859	-658.3192138671875	-1047.262573242188	58.83246994018555	-623.7691650390625	-1061.93017578125	44.53740310668945	-735.2572021484375	-1251.009033203125	45.90256500244141	-640.089599609375	-877.9324951171875	481.9300537109375	-458.1988220214844	-941.9597778320312	724.691162109375	-429.7278137207031	-1108.494384765625	113.4634323120117	-371.3254089355469	-933.3490600585938	355.2586975097656	-422.2033081054688	-930.0172729492188	47.02988815307617	-453.0038452148438	-989.7887573242188	58.99578475952148	-480.8081970214844	-989.5458984375	60.36713409423828	-374.7951354980469	-1176.407470703125	140.9350128173828	-406.6535339355469	
144	1.43	-1171.931396484375	943.998779296875	-539.7943725585938	-1190.9931640625	956.854248046875	-681.0482177734375	-1162.968383789062	1044.174438476562	-601.1234741210938	-887.8878173828125	1240.701782226562	-667.759765625	-1172.1318359375	1169.597534179688	-601.4878540039062	-1098.977416992188	1436.854248046875	-604.4158325195312	-923.4590454101562	1354.232666015625	-664.02880859375	-1139.614379882812	1318.000244140625	-499.6958618164062	-1155.879272460938	1389.575805664062	-692.1162719726562	-1079.066284179688	1413.089111328125	-796.625	-1114.719360351562	1293.212158203125	-887.840576171875	-1098.352661132812	1075.228271484375	-921.1876220703125	-1162.125	1065.54345703125	-840.2593383789062	-1015.309448242188	870.4656982421875	-888.041748046875	-1072.612670898438	858.4578247070312	-935.2311401367188	-1080.65234375	986.8544921875	-932.5425415039062	-1025.919799804688	700.7020874023438	-890.3309326171875	-1069.096557617188	778.6845703125	-937.384765625	-1005.676635742188	782.066650390625	-901.2315063476562	-996.3925170898438	1406.876831054688	-465.0371704101562	-999.8642578125	1345.5654296875	-388.0816955566406	-982.0634765625	1062.607421875	-324.3807067871094	-1042.409545898438	1044.622192382812	-349.5589904785156	-892.1542358398438	857.5406494140625	-391.9728088378906	-940.826416015625	844.4074096679688	-319.0690612792969	-974.1558227539062	1003.986511230469	-315.9635925292969	-891.85693359375	700.2164306640625	-381.5042724609375	-875.0372314453125	759.0405883789062	-382.17578125	-926.5951538085938	757.1715087890625	-324.914306640625	-985.4199829101562	1635.95654296875	-541.7237548828125	-877.9336547851562	1638.989624023438	-718.370361328125	-855.5015869140625	1637.278076171875	-589.4237060546875	-1030.936767578125	1644.78564453125	-713.5026245117188	-1079.312866210938	854.4622802734375	-824.279296875	-1022.1435546875	840.45068359375	-425.2196655273438	-940.7153930664062	890.4708862304688	-508.2816162109375	-969.9561767578125	886.966552734375	-761.6626586914062	-1108.028076171875	435.6572875976562	-759.628662109375	-1070.865478515625	583.2029418945312	-796.9100952148438	-1213.1953125	34.46192169189453	-707.8715209960938	-1127.212524414062	287.668212890625	-756.2813110351562	-975.244140625	55.49149322509766	-658.515869140625	-1047.494140625	58.71948623657227	-624.0216674804688	-1062.115112304688	44.41522216796875	-735.4987182617188	-1251.029052734375	45.8680305480957	-639.9410400390625	-866.6189575195312	484.7521667480469	-463.1161193847656	-935.2307739257812	726.315185546875	-432.7596435546875	-1101.61328125	120.733757019043	-375.5063781738281	-922.2931518554688	357.6145629882812	-427.5804748535156	-924.8385620117188	48.45137405395508	-456.0100402832031	-984.5261840820312	60.92358779907227	-484.3366088867188	-983.7794189453125	64.99364471435547	-378.2721252441406	-1169.288330078125	148.3544158935547	-410.666259765625	
